<svg height="512pt" viewBox="0 0 512 512" width="512pt" xmlns="http://www.w3.org/2000/svg"><path d="m0 0h512v512h-512z" fill="#537983"/><path d="m256 0h256v512h-256zm0 0" fill="#3e5959"/><path d="m30 30h211v211h-211zm0 0" fill="#64e1dc"/><path d="m271 30h211v211h-211zm0 0" fill="#e63950"/><path d="m30 271h211v211h-211zm0 0" fill="#ffd396"/><path d="m271 271h211v211h-211zm0 0" fill="#00c8c8"/><path d="m181 301h-90v150h30v-60h60zm-30 60h-30v-30h30zm0 0" fill="#e0f4ff"/><path d="m391 451h-90v-135h30v105h60zm0 0" fill="#bbdcff"/><path d="m181 91h30v30h-30zm0 0" fill="#e0f4ff"/><path d="m421 391h30v60h-30zm0 0" fill="#bbdcff"/><path d="m421 331h30v30h-30zm0 0" fill="#bbdcff"/><path d="m181 151h30v60h-30zm0 0" fill="#e0f4ff"/><path d="m106 91c8.277344 0 15 6.722656 15 15h30c0-24.8125-20.1875-45-45-45s-45 20.1875-45 45 20.1875 45 45 45c8.277344 0 15 6.722656 15 15s-6.722656 15-15 15-15-6.722656-15-15h-30c0 24.8125 20.1875 45 45 45s45-20.1875 45-45-20.1875-45-45-45c-8.277344 0-15-6.722656-15-15s6.722656-15 15-15zm0 0" fill="#e0f4ff"/><g fill="#bbdcff"><path d="m346 211c-24.8125 0-45-20.1875-45-45v-60c0-24.8125 20.1875-45 45-45s45 20.1875 45 45h-30c0-8.277344-6.722656-15-15-15s-15 6.722656-15 15v60c0 8.277344 6.722656 15 15 15s15-6.722656 15-15h30c0 24.8125-20.1875 45-45 45zm0 0"/><path d="m406 211c-24.8125 0-45-20.1875-45-45s20.1875-45 45-45 45 20.1875 45 45-20.1875 45-45 45zm0-60c-8.277344 0-15 6.722656-15 15s6.722656 15 15 15 15-6.722656 15-15-6.722656-15-15-15zm0 0"/></g></svg>